<svg height="512" viewBox="0 0 128 128" width="512" xmlns="http://www.w3.org/2000/svg"><g><g><path d="m101.927 27.046v73.908a8.053 8.053 0 0 1 -8.052 8.046h-52.646a8.052 8.052 0 0 1 -8.052-8.042v-4.6h3.667a3.583 3.583 0 0 0 2.5-1.033 3.54 3.54 0 0 0 -2.5-6.04h-3.667v-12.14h3.667a3.547 3.547 0 0 0 2.5-1.045 3.531 3.531 0 0 0 -2.5-6.028h-3.667v-12.144h3.667a3.537 3.537 0 0 0 0-7.073h-3.667v-12.133h3.667a3.584 3.584 0 0 0 2.5-1.034 3.539 3.539 0 0 0 -2.5-6.039h-3.667v-4.6a8.052 8.052 0 0 1 8.052-8.049h52.646a8.053 8.053 0 0 1 8.052 8.046z" fill="#f7bd57"/><g fill="#1470f7"><path d="m40.38 35.185a3.518 3.518 0 0 1 -1.034 2.5 3.584 3.584 0 0 1 -2.5 1.034h-7.326a3.537 3.537 0 1 1 0-7.073h7.324a3.544 3.544 0 0 1 3.536 3.539z"/><path d="m40.38 54.391a3.53 3.53 0 0 1 -3.536 3.537h-7.324a3.537 3.537 0 0 1 0-7.073h7.324a3.55 3.55 0 0 1 3.536 3.536z"/><path d="m40.38 73.609a3.511 3.511 0 0 1 -1.034 2.491 3.547 3.547 0 0 1 -2.5 1.045h-7.326a3.537 3.537 0 1 1 0-7.073h7.324a3.544 3.544 0 0 1 3.536 3.537z"/><path d="m40.38 92.815a3.52 3.52 0 0 1 -1.034 2.5 3.583 3.583 0 0 1 -2.5 1.033h-7.326a3.537 3.537 0 1 1 0-7.073h7.324a3.544 3.544 0 0 1 3.536 3.54z"/></g><rect fill="#fffdf3" height="23.598" rx="3.527" width="35.569" x="51.821" y="35.185"/></g><g fill="#4f2e13"><path d="m101.972 79.054a1.749 1.749 0 0 0 -1.75 1.75v.581a1.75 1.75 0 0 0 3.5 0v-.585a1.75 1.75 0 0 0 -1.75-1.746z"/><path d="m93.919 17.254h-52.646a9.808 9.808 0 0 0 -9.8 9.792v2.854h-1.909a5.287 5.287 0 0 0 0 10.573h1.907v8.633h-1.907a5.287 5.287 0 0 0 0 10.573h1.907v8.644h-1.907a5.26 5.26 0 0 0 -3.749 1.556 5.368 5.368 0 0 0 -1.537 3.73 5.292 5.292 0 0 0 5.286 5.291h1.907v8.633h-1.907a5.287 5.287 0 0 0 0 10.573h1.907v2.853a9.808 9.808 0 0 0 9.8 9.792h52.648a9.809 9.809 0 0 0 9.8-9.792v-10.681a1.75 1.75 0 0 0 -3.5 0v10.676a6.305 6.305 0 0 1 -6.3 6.292h-52.646a6.3 6.3 0 0 1 -6.3-6.292v-2.854h1.918a5.371 5.371 0 0 0 3.739-1.546 5.289 5.289 0 0 0 -3.739-9.027h-1.92v-8.627h1.918a5.327 5.327 0 0 0 3.739-1.557 5.281 5.281 0 0 0 -3.739-9.016h-1.918v-8.649h1.918a5.32 5.32 0 0 0 3.738-1.546 5.288 5.288 0 0 0 -3.738-9.027h-1.918v-8.633h1.918a5.371 5.371 0 0 0 3.739-1.546 5.289 5.289 0 0 0 -3.739-9.026h-1.918v-2.854a6.3 6.3 0 0 1 6.3-6.292h52.648a6.305 6.305 0 0 1 6.3 6.292v45.419a1.75 1.75 0 0 0 3.5 0v-45.419a9.809 9.809 0 0 0 -9.8-9.792zm-55.244 75.561a1.77 1.77 0 0 1 -.512 1.255 1.835 1.835 0 0 1 -1.274.531h-7.325a1.788 1.788 0 0 1 -1.274-3.041 1.811 1.811 0 0 1 1.274-.532h7.325a1.789 1.789 0 0 1 1.786 1.787zm0-19.207a1.764 1.764 0 0 1 -.522 1.255 1.805 1.805 0 0 1 -1.264.532h-7.325a1.789 1.789 0 0 1 -1.264-3.052 1.775 1.775 0 0 1 1.264-.521h7.325a1.788 1.788 0 0 1 1.786 1.786zm0-19.216a1.782 1.782 0 0 1 -1.786 1.786h-7.325a1.787 1.787 0 0 1 0-3.573h7.325a1.811 1.811 0 0 1 1.786 1.787zm0-19.207a1.768 1.768 0 0 1 -.512 1.255 1.836 1.836 0 0 1 -1.274.532h-7.325a1.789 1.789 0 0 1 -1.274-3.042 1.809 1.809 0 0 1 1.274-.531h7.325a1.788 1.788 0 0 1 1.786 1.786z"/><path d="m55.393 33.435a5.283 5.283 0 0 0 -5.278 5.277v16.544a5.283 5.283 0 0 0 5.278 5.277h28.514a5.284 5.284 0 0 0 5.278-5.277v-16.544a5.284 5.284 0 0 0 -5.278-5.277zm30.292 5.277v16.544a1.779 1.779 0 0 1 -1.778 1.777h-28.514a1.779 1.779 0 0 1 -1.778-1.777v-16.544a1.779 1.779 0 0 1 1.778-1.777h28.514a1.779 1.779 0 0 1 1.778 1.777z"/></g></g></svg>