<svg id="Composant_6_1" data-name="Composant 6 – 1" xmlns="http://www.w3.org/2000/svg" width="835.465" height="781.949" viewBox="0 0 835.465 781.949">
  <g id="undraw_noted_pc-9-f_1_" data-name="undraw_noted_pc-9-f (1)" transform="translate(0 34.66)">
    <path id="Tracé_75" data-name="Tracé 75" d="M936.145,251.927c29.854,43.558,23.248,99.984,23.248,99.984s-55.01-14.2-84.864-57.753-23.248-99.984-23.248-99.984S906.291,208.369,936.145,251.927Z" transform="translate(-153.984 -106.362)" fill="#2f2e41"/>
    <path id="Tracé_76" data-name="Tracé 76" d="M907.971,263.583c3.493,52.691,43.593,92.935,43.593,92.935S986,311.333,982.507,258.641s-43.593-92.935-43.593-92.935S904.477,210.893,907.971,263.583Z" transform="translate(-147.291 -109.701)" fill="#f9a826"/>
    <path id="Tracé_77" data-name="Tracé 77" d="M604.95,116.676l405.326,203.782a19.167,19.167,0,0,1,10.514,18.415L997.241,687.7a9.5,9.5,0,0,1-13.759,7.836L568.913,483.958,590.2,125.18a10.193,10.193,0,0,1,14.754-8.5Z" transform="translate(-187.031 -115.58)" fill="#d0cde1"/>
    <path id="Tracé_78" data-name="Tracé 78" d="M609.032,123.035,1004.4,321.813a18.7,18.7,0,0,1,10.255,17.963l-22.97,340.255a9.263,9.263,0,0,1-13.421,7.643L573.88,481.3,594.641,131.33a9.943,9.943,0,0,1,14.392-8.295Z" transform="translate(-186.449 -114.831)" fill="#3f3d56"/>
    <path id="Tracé_79" data-name="Tracé 79" d="M624.2,146.655,982.587,326.841a16.947,16.947,0,0,1,9.3,16.283L971.061,651.555a8.4,8.4,0,0,1-12.166,6.928L592.331,471.409,611.15,154.174a9.013,9.013,0,0,1,13.046-7.519Z" transform="translate(-184.284 -112.049)" fill="#fff"/>
    <path id="Tracé_80" data-name="Tracé 80" d="M290.518,617.246,696.362,821.634A27.022,27.022,0,0,0,720.7,821.6L1020.935,669.2c3.52-3.52,3.029-8.738,1.9-12.654a28.2,28.2,0,0,0-2.22-5.471L979.7,629.551,635.722,457.925l-20.552-10.91a38.054,38.054,0,0,0-35.346-.143L290.391,597.218a11.237,11.237,0,0,0,.127,20.028Z" transform="translate(-220.413 -77.225)" fill="#d0cde1"/>
    <path id="Tracé_81" data-name="Tracé 81" d="M290.519,600.155,696.362,804.542a27.022,27.022,0,0,0,24.341-.032L1020.935,652.1c3.52-3.52,3.029-8.738,1.9-12.654L723.5,795.036a26.112,26.112,0,0,1-23.686.2L284.461,588.308A11.192,11.192,0,0,0,290.519,600.155Z" transform="translate(-220.413 -60.133)" opacity="0.1"/>
    <path id="Tracé_82" data-name="Tracé 82" d="M658.531,660.9,527.1,594.484a18.468,18.468,0,0,0-17.032.194l-76.245,40.734a5.454,5.454,0,0,0,.114,9.681L567.945,712.67a15.18,15.18,0,0,0,14.286-.329l76.549-43.127a4.7,4.7,0,0,0-.248-8.313Z" transform="translate(-203.215 -59.641)" opacity="0.1"/>
    <path id="Tracé_83" data-name="Tracé 83" d="M969.989,665.71,828.555,740.847a11.5,11.5,0,0,1-10.589.107L418.355,538.869a6.8,6.8,0,0,1,.052-12.155l138.114-68.359a14.977,14.977,0,0,1,13.382.048L969.927,659.953a3.242,3.242,0,0,1,.063,5.757Z" transform="translate(-205.128 -75.558)" opacity="0.1"/>
    <rect id="Rectangle_14" data-name="Rectangle 14" width="1.586" height="145.38" transform="matrix(0.447, -0.894, 0.894, 0.447, 538.515, 216.852)" fill="#f9a826"/>
    <rect id="Rectangle_15" data-name="Rectangle 15" width="1.585" height="146.096" transform="translate(538.492 235.909) rotate(-62.909)" fill="#f9a826"/>
    <rect id="Rectangle_16" data-name="Rectangle 16" width="1.586" height="83.686" transform="matrix(0.455, -0.89, 0.89, 0.455, 562.305, 272.342)" fill="#f9a826"/>
    <path id="Tracé_84" data-name="Tracé 84" d="M371.809,429.748s-31.709-13.817-46.6.779S365.083,440.318,371.809,429.748Z" transform="translate(-215.916 -79.425)" fill="#3f3d56"/>
    <path id="Tracé_85" data-name="Tracé 85" d="M318.288,372.464c10.656-18.006,31.738-18.845,31.738-18.845s20.543-2.627,33.722,24.8c12.283,25.56,29.236,50.239,2.729,56.222l-4.788-14.9-2.966,16.012a103.708,103.708,0,0,1-11.341.194c-28.387-.917-55.421.268-54.55-9.918C313.99,412.481,308.034,389.788,318.288,372.464Z" transform="translate(-217.148 -87.668)" fill="#2f2e41"/>
    <path id="Tracé_86" data-name="Tracé 86" d="M306.718,662.62s13.452,24.983,22.1,24.983,7.687,16.335,5.765,20.179-6.726,12.492.961,24.983c2.685,4.363,2.2,9.313.443,13.906-4.937,12.871-24.141,8.972-23.529-4.8q.01-.228.025-.458c.961-15.374-6.726-39.4-14.413-45.162s-14.413-21.14-14.413-21.14Z" transform="translate(-220.49 -51.417)" fill="#ffb8b8"/>
    <path id="Tracé_87" data-name="Tracé 87" d="M390.083,657.46s-13.452,24.983-22.1,24.983-7.687,16.335-5.765,20.179,6.726,12.492-.961,24.983c-2.685,4.363-2.2,9.313-.443,13.907,4.937,12.871,24.141,8.972,23.529-4.8q-.01-.228-.025-.458c-.961-15.374,6.726-39.4,14.413-45.162s14.413-21.14,14.413-21.14Z" transform="translate(-211.61 -52.022)" fill="#ffb8b8"/>
    <path id="Tracé_88" data-name="Tracé 88" d="M395.025,548.488l5.765,12.492s84.558,27.866,76.871,60.536-45.162,83.6-50.927,81.676-36.514-7.687-37.475-24.022,22.1-45.162,22.1-45.162L379.651,605.18l-46.142-.961-39.377,29.787s41.318,36.514,23.061,50.927-45.162,24.022-49.005,18.257S221.1,611.906,227.83,604.219s74.949-36.513,74.949-36.513l18.257-25.944,71.106-3.844Z" transform="translate(-227.121 -66.043)" fill="#2f2e41"/>
    <path id="Tracé_89" data-name="Tracé 89" d="M366.256,406.238s-4.8,31.709,4.8,35.553-19.218,20.179-19.218,20.179H335.508l-10.57-22.1s9.609-17.3,3.844-33.631S366.256,406.238,366.256,406.238Z" transform="translate(-215.648 -82.34)" fill="#ffb8b8"/>
    <path id="Tracé_90" data-name="Tracé 90" d="M366.256,406.238s-4.8,31.709,4.8,35.553-19.218,20.179-19.218,20.179H335.508l-10.57-22.1s9.609-17.3,3.844-33.631S366.256,406.238,366.256,406.238Z" transform="translate(-215.648 -82.34)" opacity="0.1"/>
    <path id="Tracé_91" data-name="Tracé 91" d="M374.394,429.557s-10.57,11.53-12.491,13.452-10.57,12.492-28.827-2.883-20.179,2.883-20.179,2.883V558.315s15.374-6.726,27.866,0,38.436-1.922,38.436-1.922l4.8-119.15Z" transform="translate(-217.06 -78.753)" fill="#d0cde1"/>
    <path id="Tracé_92" data-name="Tracé 92" d="M362.916,429.736s8.98-3.844,16.667,0,34.592,23.061,32.67,31.709-26.9,69.184-9.609,98.011,20.179,36.513,20.179,36.513l-42.279-22.1s-32.67-20.179-29.787-32.67S362.916,429.736,362.916,429.736Z" transform="translate(-212.641 -78.933)" fill="#3f3d56"/>
    <path id="Tracé_93" data-name="Tracé 93" d="M333.6,429.557s-20.167,1.922-21.128,3.844-30.268,10.089-28.346,18.737,28.346,86,16.815,100.413-30.748,34.592-24.022,36.514,18.257-2.883,29.788,0,38.436-21.14,35.553-47.083S342.24,436.283,333.6,429.557Z" transform="translate(-221.443 -78.753)" fill="#3f3d56"/>
    <path id="Tracé_94" data-name="Tracé 94" d="M372.544,594.323v9.609s4.8,22.1-10.57,21.14-5.765-26.9-5.765-26.9l.961-8.648Z" transform="translate(-212.328 -59.991)" fill="#ffb8b8"/>
    <path id="Tracé_95" data-name="Tracé 95" d="M333.735,594.679s10.57,22.1,0,24.022-18.257-12.492-18.257-16.335S333.735,594.679,333.735,594.679Z" transform="translate(-216.758 -59.386)" fill="#ffb8b8"/>
    <ellipse id="Ellipse_38" data-name="Ellipse 38" cx="1.922" cy="3.844" rx="1.922" ry="3.844" transform="translate(101.122 307.082)" fill="#ffb8b8"/>
    <ellipse id="Ellipse_39" data-name="Ellipse 39" cx="1.922" cy="3.844" rx="1.922" ry="3.844" transform="translate(157.814 307.082)" fill="#ffb8b8"/>
    <path id="Tracé_96" data-name="Tracé 96" d="M306.721,440.737s-24.022,0-23.061,9.609,32.67,174.882,32.67,174.882,13.452-12.492,24.983-9.609Z" transform="translate(-220.493 -77.442)" fill="#3f3d56"/>
    <path id="Tracé_97" data-name="Tracé 97" d="M391.753,443.317s24.022,4.8,24.022,19.218-34.592,152.781-39.4,152.781-23.061-2.883-23.061-7.687S391.753,443.317,391.753,443.317Z" transform="translate(-212.319 -77.139)" fill="#3f3d56"/>
    <path id="Tracé_98" data-name="Tracé 98" d="M385.258,468.687l-21.62,84.55S373.727,479.257,385.258,468.687Z" transform="translate(-211.109 -74.164)" opacity="0.2"/>
    <path id="Tracé_99" data-name="Tracé 99" d="M307.723,458.054,329.588,568.6S322.6,464.43,307.723,458.054Z" transform="translate(-217.667 -75.411)" opacity="0.2"/>
    <circle id="Ellipse_40" data-name="Ellipse 40" cx="27.866" cy="27.866" r="27.866" transform="translate(103.525 283.541)" fill="#ffb8b8"/>
    <path id="Tracé_100" data-name="Tracé 100" d="M94.842,254.489l20.829-10.909,28.762,4.462,5.951,26.283-14.813-.569-4.138-9.657v9.5l-6.836-.263-3.968-15.374-2.479,16.365-24.3-.495Z" transform="translate(11.008 28.569)" fill="#2f2e41"/>
    <path id="Tracé_101" data-name="Tracé 101" d="M375.486,110.375,364,137.692l96.945,50.887L493.606,93" transform="translate(42.695 10.907)" fill="#f2f2f2"/>
    <path id="Tracé_102" data-name="Tracé 102" d="M458.945,179.209,501.772,78.437,403.34,30,362,128.322Z" transform="translate(42.46 3.518)" fill="#f9a826"/>
    <rect id="Rectangle_17" data-name="Rectangle 17" width="1.586" height="83.686" transform="matrix(0.455, -0.89, 0.89, 0.455, 442.754, 73.464)" fill="#fff"/>
    <rect id="Rectangle_18" data-name="Rectangle 18" width="1.586" height="83.686" transform="matrix(0.455, -0.89, 0.89, 0.455, 437.168, 86.872)" fill="#fff"/>
  </g>
  <g id="Groupe_17" data-name="Groupe 17" transform="translate(-494 -99.357)" opacity="0.53">
    <circle id="Ellipse_26" data-name="Ellipse 26" cx="6.467" cy="6.467" r="6.467" transform="translate(630.907 99.357)" fill="#2f2e41"/>
    <circle id="Ellipse_27" data-name="Ellipse 27" cx="6.467" cy="6.467" r="6.467" transform="translate(630.907 125.131)" fill="#2f2e41"/>
    <circle id="Ellipse_28" data-name="Ellipse 28" cx="6.467" cy="6.467" r="6.467" transform="translate(630.907 150.904)" fill="#2f2e41"/>
    <circle id="Ellipse_29" data-name="Ellipse 29" cx="6.467" cy="6.467" r="6.467" transform="translate(657.907 99.357)" fill="#2f2e41"/>
    <circle id="Ellipse_30" data-name="Ellipse 30" cx="6.467" cy="6.467" r="6.467" transform="translate(657.907 125.131)" fill="#2f2e41"/>
    <circle id="Ellipse_31" data-name="Ellipse 31" cx="6.467" cy="6.467" r="6.467" transform="translate(657.907 150.904)" fill="#2f2e41"/>
    <circle id="Ellipse_32" data-name="Ellipse 32" cx="6.467" cy="6.467" r="6.467" transform="translate(684.907 99.357)" fill="#2f2e41"/>
    <circle id="Ellipse_33" data-name="Ellipse 33" cx="6.467" cy="6.467" r="6.467" transform="translate(684.907 125.131)" fill="#2f2e41"/>
    <circle id="Ellipse_34" data-name="Ellipse 34" cx="6.467" cy="6.467" r="6.467" transform="translate(684.907 150.904)" fill="#2f2e41"/>
    <circle id="Ellipse_35" data-name="Ellipse 35" cx="6.467" cy="6.467" r="6.467" transform="translate(711.907 99.357)" fill="#2f2e41"/>
    <circle id="Ellipse_36" data-name="Ellipse 36" cx="6.467" cy="6.467" r="6.467" transform="translate(711.907 125.131)" fill="#2f2e41"/>
    <circle id="Ellipse_37" data-name="Ellipse 37" cx="6.467" cy="6.467" r="6.467" transform="translate(711.907 150.904)" fill="#2f2e41"/>
  </g>
  <g id="Groupe_19" data-name="Groupe 19" transform="translate(-387 -99.357)" opacity="0.53">
    <circle id="Ellipse_26-2" data-name="Ellipse 26" cx="6.467" cy="6.467" r="6.467" transform="translate(630.907 99.357)" fill="#2f2e41"/>
    <circle id="Ellipse_27-2" data-name="Ellipse 27" cx="6.467" cy="6.467" r="6.467" transform="translate(630.907 125.131)" fill="#2f2e41"/>
    <circle id="Ellipse_28-2" data-name="Ellipse 28" cx="6.467" cy="6.467" r="6.467" transform="translate(630.907 150.904)" fill="#2f2e41"/>
    <circle id="Ellipse_29-2" data-name="Ellipse 29" cx="6.467" cy="6.467" r="6.467" transform="translate(657.907 99.357)" fill="#2f2e41"/>
    <circle id="Ellipse_30-2" data-name="Ellipse 30" cx="6.467" cy="6.467" r="6.467" transform="translate(657.907 125.131)" fill="#2f2e41"/>
    <circle id="Ellipse_31-2" data-name="Ellipse 31" cx="6.467" cy="6.467" r="6.467" transform="translate(657.907 150.904)" fill="#2f2e41"/>
    <circle id="Ellipse_32-2" data-name="Ellipse 32" cx="6.467" cy="6.467" r="6.467" transform="translate(684.907 99.357)" fill="#2f2e41"/>
    <circle id="Ellipse_33-2" data-name="Ellipse 33" cx="6.467" cy="6.467" r="6.467" transform="translate(684.907 125.131)" fill="#2f2e41"/>
    <circle id="Ellipse_34-2" data-name="Ellipse 34" cx="6.467" cy="6.467" r="6.467" transform="translate(684.907 150.904)" fill="#2f2e41"/>
    <circle id="Ellipse_35-2" data-name="Ellipse 35" cx="6.467" cy="6.467" r="6.467" transform="translate(711.907 99.357)" fill="#2f2e41"/>
    <circle id="Ellipse_36-2" data-name="Ellipse 36" cx="6.467" cy="6.467" r="6.467" transform="translate(711.907 125.131)" fill="#2f2e41"/>
    <circle id="Ellipse_37-2" data-name="Ellipse 37" cx="6.467" cy="6.467" r="6.467" transform="translate(711.907 150.904)" fill="#2f2e41"/>
  </g>
  <g id="Groupe_20" data-name="Groupe 20" transform="translate(-387 -24.857)" opacity="0.53">
    <circle id="Ellipse_26-3" data-name="Ellipse 26" cx="6.467" cy="6.467" r="6.467" transform="translate(630.907 99.357)" fill="#2f2e41"/>
    <circle id="Ellipse_27-3" data-name="Ellipse 27" cx="6.467" cy="6.467" r="6.467" transform="translate(630.907 125.131)" fill="#2f2e41"/>
    <circle id="Ellipse_28-3" data-name="Ellipse 28" cx="6.467" cy="6.467" r="6.467" transform="translate(630.907 150.904)" fill="#2f2e41"/>
    <circle id="Ellipse_29-3" data-name="Ellipse 29" cx="6.467" cy="6.467" r="6.467" transform="translate(657.907 99.357)" fill="#2f2e41"/>
    <circle id="Ellipse_30-3" data-name="Ellipse 30" cx="6.467" cy="6.467" r="6.467" transform="translate(657.907 125.131)" fill="#2f2e41"/>
    <circle id="Ellipse_31-3" data-name="Ellipse 31" cx="6.467" cy="6.467" r="6.467" transform="translate(657.907 150.904)" fill="#2f2e41"/>
    <circle id="Ellipse_32-3" data-name="Ellipse 32" cx="6.467" cy="6.467" r="6.467" transform="translate(684.907 99.357)" fill="#2f2e41"/>
    <circle id="Ellipse_33-3" data-name="Ellipse 33" cx="6.467" cy="6.467" r="6.467" transform="translate(684.907 125.131)" fill="#2f2e41"/>
    <circle id="Ellipse_34-3" data-name="Ellipse 34" cx="6.467" cy="6.467" r="6.467" transform="translate(684.907 150.904)" fill="#2f2e41"/>
    <circle id="Ellipse_35-3" data-name="Ellipse 35" cx="6.467" cy="6.467" r="6.467" transform="translate(711.907 99.357)" fill="#2f2e41"/>
    <circle id="Ellipse_36-3" data-name="Ellipse 36" cx="6.467" cy="6.467" r="6.467" transform="translate(711.907 125.131)" fill="#2f2e41"/>
    <circle id="Ellipse_37-3" data-name="Ellipse 37" cx="6.467" cy="6.467" r="6.467" transform="translate(711.907 150.904)" fill="#2f2e41"/>
  </g>
  <g id="Groupe_21" data-name="Groupe 21" transform="translate(-494 -24.857)" opacity="0.53">
    <circle id="Ellipse_26-4" data-name="Ellipse 26" cx="6.467" cy="6.467" r="6.467" transform="translate(630.907 99.357)" fill="#2f2e41"/>
    <circle id="Ellipse_27-4" data-name="Ellipse 27" cx="6.467" cy="6.467" r="6.467" transform="translate(630.907 125.131)" fill="#2f2e41"/>
    <circle id="Ellipse_28-4" data-name="Ellipse 28" cx="6.467" cy="6.467" r="6.467" transform="translate(630.907 150.904)" fill="#2f2e41"/>
    <circle id="Ellipse_29-4" data-name="Ellipse 29" cx="6.467" cy="6.467" r="6.467" transform="translate(657.907 99.357)" fill="#2f2e41"/>
    <circle id="Ellipse_30-4" data-name="Ellipse 30" cx="6.467" cy="6.467" r="6.467" transform="translate(657.907 125.131)" fill="#2f2e41"/>
    <circle id="Ellipse_31-4" data-name="Ellipse 31" cx="6.467" cy="6.467" r="6.467" transform="translate(657.907 150.904)" fill="#2f2e41"/>
    <circle id="Ellipse_32-4" data-name="Ellipse 32" cx="6.467" cy="6.467" r="6.467" transform="translate(684.907 99.357)" fill="#2f2e41"/>
    <circle id="Ellipse_33-4" data-name="Ellipse 33" cx="6.467" cy="6.467" r="6.467" transform="translate(684.907 125.131)" fill="#2f2e41"/>
    <circle id="Ellipse_34-4" data-name="Ellipse 34" cx="6.467" cy="6.467" r="6.467" transform="translate(684.907 150.904)" fill="#2f2e41"/>
    <circle id="Ellipse_35-4" data-name="Ellipse 35" cx="6.467" cy="6.467" r="6.467" transform="translate(711.907 99.357)" fill="#2f2e41"/>
    <circle id="Ellipse_36-4" data-name="Ellipse 36" cx="6.467" cy="6.467" r="6.467" transform="translate(711.907 125.131)" fill="#2f2e41"/>
    <circle id="Ellipse_37-4" data-name="Ellipse 37" cx="6.467" cy="6.467" r="6.467" transform="translate(711.907 150.904)" fill="#2f2e41"/>
  </g>
</svg>
